<svg xmlns="http://www.w3.org/2000/svg" viewBox="0 0 400 400">
  <defs>
    <linearGradient id="bg1" x1="0" y1="0" x2="1" y2="1">
      <stop offset="0%" stop-color="#0B6E4F"/>
      <stop offset="100%" stop-color="#0d8a63"/>
    </linearGradient>
  </defs>
  <rect width="400" height="400" fill="url(#bg1)"/>
  <!-- braises -->
  <g opacity="0.25">
    <circle cx="60" cy="330" r="14" fill="#E8A837"/>
    <circle cx="100" cy="345" r="9" fill="#D64531"/>
    <circle cx="330" cy="335" r="12" fill="#D64531"/>
  </g>
  <!-- grille -->
  <g stroke="#2D2A26" stroke-width="4" opacity="0.35">
    <line x1="40" y1="300" x2="360" y2="300"/>
    <line x1="40" y1="320" x2="360" y2="320"/>
    <line x1="40" y1="340" x2="360" y2="340"/>
  </g>
  <!-- poisson -->
  <g transform="translate(200,190)">
    <path d="M -120,0 C -80,-70 60,-70 130,-10 L 165,0 L 130,10 C 60,70 -80,70 -120,0 Z" fill="#F9F6F0"/>
    <path d="M 130,-10 L 175,-35 L 165,0 L 175,35 L 130,10 Z" fill="#E8A837"/>
    <circle cx="-75" cy="-6" r="9" fill="#2D2A26"/>
    <path d="M -20,-45 C 10,-60 40,-60 70,-45" stroke="#D64531" stroke-width="6" fill="none" stroke-linecap="round"/>
    <path d="M -20,45 C 10,60 40,60 70,45" stroke="#D64531" stroke-width="6" fill="none" stroke-linecap="round"/>
    <path d="M -60,-30 L -60,30 M -25,-40 L -25,40 M 10,-42 L 10,42 M 45,-35 L 45,35" stroke="#D64531" stroke-width="4" opacity="0.55" stroke-linecap="round"/>
  </g>
  <text x="200" y="380" text-anchor="middle" font-family="Georgia, serif" font-size="22" fill="#F9F6F0" opacity="0.85">Poisson Braisé</text>
</svg>
